<?xml version="1.0" encoding="UTF-8" standalone="no"?>
<!-- Created with Inkscape (http://www.inkscape.org/) -->

<svg
   width="99.58239mm"
   height="164.23656mm"
   viewBox="0 0 99.582392 164.23656"
   version="1.1"
   id="svg1815"
   inkscape:version="1.2.1 (9c6d41e410, 2022-07-14)"
   sodipodi:docname="logoS_Contorno_Branco_v1.0.svg"
   xmlns:inkscape="http://www.inkscape.org/namespaces/inkscape"
   xmlns:sodipodi="http://sodipodi.sourceforge.net/DTD/sodipodi-0.dtd"
   xmlns="http://www.w3.org/2000/svg"
   xmlns:svg="http://www.w3.org/2000/svg">
  <sodipodi:namedview
     id="namedview1817"
     pagecolor="#ffffff"
     bordercolor="#000000"
     borderopacity="0.25"
     inkscape:showpageshadow="2"
     inkscape:pageopacity="0.0"
     inkscape:pagecheckerboard="true"
     inkscape:deskcolor="#d1d1d1"
     inkscape:document-units="mm"
     showgrid="false"
     inkscape:zoom="0.76167929"
     inkscape:cx="248.79237"
     inkscape:cy="212.68794"
     inkscape:window-width="1920"
     inkscape:window-height="1009"
     inkscape:window-x="1912"
     inkscape:window-y="-8"
     inkscape:window-maximized="1"
     inkscape:current-layer="layer1" />
  <defs
     id="defs1812" />
  <g
     inkscape:label="Camada 1"
     inkscape:groupmode="layer"
     id="layer1"
     transform="translate(8.80172,-84.618491)">
    <path
       id="path2306"
       style="color:#000000;font-size:148.297px;font-family:'Arial Rounded MT Bold';-inkscape-font-specification:'Arial Rounded MT Bold, Normal';fill:none;fill-opacity:1;stroke:#ffffff;stroke-width:5;stroke-linecap:butt;stroke-linejoin:miter;stroke-dasharray:none"
       d="m 40.98968,87.118894 c -5.29215,0 -9.55239,4.829642 -9.55239,10.829256 v 4.96596 c -5.01234,0.66986 -9.65671,1.91605 -13.91233,3.78168 h -0.008 c -6.75717,2.9122 -12.27702,7.31031 -16.08429,13.13975 -3.77889,5.786 -5.70714,12.61576 -5.70714,19.89458 0,7.48532 1.76433,14.29208 5.45548,19.79631 a 5.1131612,5.4968809 0 0 0 0.0388,0.0591 c 3.57246,5.18172 8.38942,9.27926 14.16399,12.20757 a 5.1131612,5.4968809 0 0 0 0.0527,0.0247 c 5.58853,2.75136 12.28508,5.06862 20.15071,7.04875 a 5.1131612,5.4968809 0 0 0 0.0253,0.0108 c 5.58949,1.37498 9.99401,2.66773 13.09584,3.81104 a 5.1131612,5.4968809 0 0 0 0.0212,0.0108 c 2.7922,1.01462 4.78835,2.37692 6.2699,4.04206 a 5.1131612,5.4968809 0 0 0 0.0801,0.086 c 1.19488,1.28458 1.75958,2.64032 1.75958,5.29933 0,3.11774 -0.92263,5.14474 -3.94911,7.57821 -2.90435,2.32275 -6.85913,3.66387 -12.44369,3.66387 -4.08734,0 -7.02984,-0.72501 -8.88059,-1.7305 -2.21793,-1.25996 -3.73133,-2.69127 -4.79713,-4.31276 -1.26501,-2.00335 -2.56148,-4.67828 -3.80441,-8.01866 l 0.0155,0.0462 c -1.29798,-3.57948 -2.97808,-6.62777 -5.34955,-8.95922 -2.45411,-2.46035 -5.84349,-3.80437 -9.18962,-3.80437 -3.9458,0 -7.87157,1.67202 -10.6133,4.69709 -2.63057,2.90434 -4.12895,6.93813 -4.12895,10.99589 0,6.04777 1.8927,12.07018 5.2679,17.86414 a 5.1131612,5.4968809 0 0 0 0.0331,0.0548 c 3.45427,5.77644 8.01597,10.50169 13.50564,13.98366 a 5.1131612,5.4968809 0 0 0 0.0274,0.0172 c 5.45265,3.40897 11.78528,5.53347 18.90479,6.50424 v 4.81889 c 0,5.99961 4.26024,10.82979 9.55239,10.82979 5.29217,0 9.55291,-4.83018 9.55291,-10.82979 v -4.8333 c 5.53381,-0.77446 10.63536,-2.26265 15.26367,-4.52433 7.09708,-3.46809 12.80034,-8.48522 16.65789,-14.94141 3.85852,-6.37857 5.8167,-13.74231 5.8167,-21.58906 0,-6.40136 -1.07147,-12.16049 -3.4649,-17.07076 -2.24359,-4.74955 -5.492,-8.77817 -9.55497,-11.857 -3.85899,-2.96035 -8.4182,-5.37017 -13.6462,-7.31934 h -0.006 c -5.03233,-1.89326 -10.60894,-3.6029 -16.74006,-5.1443 l 0.0879,0.0215 c -4.74548,-1.28823 -8.15039,-2.2705 -10.05469,-2.8894 -1.71761,-0.55827 -3.43929,-1.33843 -5.17798,-2.36209 -1.51116,-0.8896 -2.4921,-1.82371 -3.14451,-2.75889 -0.48367,-0.6933 -0.71675,-1.33413 -0.71675,-2.61828 0,-1.87832 0.48021,-3.06753 2.92799,-4.94714 a 5.1131612,5.4968809 0 0 0 0.0114,-0.0108 c 2.36513,-1.8264 5.69102,-2.93778 10.48669,-2.93778 5.33999,0 8.46568,1.21792 9.74566,2.37274 a 5.1131612,5.4968809 0 0 0 0.0434,0.0376 c 1.99925,1.76544 3.90363,4.41887 5.58984,8.18035 a 5.1131612,5.4968809 0 0 0 0.0977,0.20554 c 1.62687,3.27234 3.1406,5.81245 5.0214,7.8344 a 5.1131612,5.4968809 0 0 0 0.14056,0.14663 c 2.48093,2.46938 5.82356,3.40822 9.12089,3.40822 3.98146,0 7.93857,-1.92046 10.57041,-5.13205 2.52176,-3.07044 4.02921,-7.04553 4.02921,-11.10705 0,-3.95756 -0.96558,-7.90449 -2.69699,-11.68918 -1.82105,-3.98068 -4.60252,-7.54919 -8.14472,-10.77594 -3.72492,-3.44659 -8.28893,-6.06702 -13.55473,-7.9577 -2.71141,-1.00861 -5.61442,-1.74501 -8.70851,-2.22878 v -5.089913 c 0,-5.999614 -4.26074,-10.829256 -9.55291,-10.829256 z" />
  </g>
</svg>
