<?xml version="1.0" encoding="UTF-8" standalone="no"?>
<!-- Created with Inkscape (http://www.inkscape.org/) -->

<svg
   width="825.34174mm"
   height="334.86316mm"
   viewBox="0 0 825.34173 334.86314"
   version="1.1"
   id="svg5"
   inkscape:version="1.2.1 (9c6d41e410, 2022-07-14)"
   sodipodi:docname="logoSPO_v1.0.svg"
   inkscape:export-filename="logoSPO.png"
   inkscape:export-xdpi="96"
   inkscape:export-ydpi="96"
   xml:space="preserve"
   xmlns:inkscape="http://www.inkscape.org/namespaces/inkscape"
   xmlns:sodipodi="http://sodipodi.sourceforge.net/DTD/sodipodi-0.dtd"
   xmlns="http://www.w3.org/2000/svg"
   xmlns:svg="http://www.w3.org/2000/svg"><sodipodi:namedview
     id="namedview7"
     pagecolor="#ffffff"
     bordercolor="#000000"
     borderopacity="0.25"
     inkscape:showpageshadow="2"
     inkscape:pageopacity="0"
     inkscape:pagecheckerboard="true"
     inkscape:deskcolor="#d1d1d1"
     inkscape:document-units="mm"
     showgrid="false"
     showguides="true"
     inkscape:zoom="0.26929429"
     inkscape:cx="1526.2113"
     inkscape:cy="768.67579"
     inkscape:window-width="1920"
     inkscape:window-height="1009"
     inkscape:window-x="1912"
     inkscape:window-y="-8"
     inkscape:window-maximized="1"
     inkscape:current-layer="g2795" /><defs
     id="defs2"><inkscape:path-effect
       effect="powerclip"
       id="path-effect959"
       is_visible="true"
       lpeversion="1"
       inverse="true"
       flatten="false"
       hide_clip="false"
       message="Usar a regra de preenchimento par ou ímpar na caixa de diálogo &lt;b&gt;preenchimento e contorno&lt;/b&gt; se nenhum resultado nivelar após converter o clipe em caminhos." /><clipPath
       clipPathUnits="userSpaceOnUse"
       id="clipPath949"><rect
         style="fill:none;stroke:#4d4d4d;stroke-width:1.07313;stroke-linecap:round;stroke-linejoin:round"
         id="rect951"
         width="77.288612"
         height="78.76236"
         x="94.3451"
         y="52.264786" /></clipPath><clipPath
       clipPathUnits="userSpaceOnUse"
       id="clipPath955"><rect
         style="display:block;fill:none;stroke:#4d4d4d;stroke-width:1.235;stroke-linecap:round;stroke-linejoin:round"
         id="rect957"
         width="83.021782"
         height="94.320595"
         x="269.31213"
         y="42.029404" /></clipPath><clipPath
       clipPathUnits="userSpaceOnUse"
       id="clipPath949-5"><rect
         style="fill:none;stroke:#4d4d4d;stroke-width:1.07313;stroke-linecap:round;stroke-linejoin:round"
         id="rect951-9"
         width="77.288612"
         height="78.76236"
         x="94.3451"
         y="52.264786" /></clipPath><clipPath
       clipPathUnits="userSpaceOnUse"
       id="clipPath949-5-9"><rect
         style="fill:none;stroke:#4d4d4d;stroke-width:1.07313;stroke-linecap:round;stroke-linejoin:round"
         id="rect951-9-1"
         width="77.288612"
         height="78.76236"
         x="94.3451"
         y="52.264786" /></clipPath><clipPath
       clipPathUnits="userSpaceOnUse"
       id="clipPath949-5-9-7"><rect
         style="fill:none;stroke:#4d4d4d;stroke-width:1.07313;stroke-linecap:round;stroke-linejoin:round"
         id="rect951-9-1-7"
         width="77.288612"
         height="78.76236"
         x="94.3451"
         y="52.264786" /></clipPath><clipPath
       clipPathUnits="userSpaceOnUse"
       id="clipPath949-5-9-6"><rect
         style="fill:none;stroke:#4d4d4d;stroke-width:1.07313;stroke-linecap:round;stroke-linejoin:round"
         id="rect951-9-1-1"
         width="77.288612"
         height="78.76236"
         x="94.3451"
         y="52.264786" /></clipPath></defs><g
     inkscape:label="Camada 1"
     inkscape:groupmode="layer"
     id="layer1"
     transform="translate(-499.98013,-1715.0511)"><g
       aria-label="S"
       transform="matrix(1.1853489,0,0,0.84363346,-4.9201685e-4,-0.85980523)"
       id="text1152"
       style="font-size:76.0952px;font-family:'Eras Light ITC';-inkscape-font-specification:'Eras Light ITC, Normal';fill:#800080;stroke:#800080;stroke-width:2.846;stroke-linecap:round;stroke-linejoin:round"><g
         id="path4871"
         style="fill:#800080" /></g><g
       aria-label="O"
       transform="matrix(0.98961509,0,0,1.1717409,-36.517662,-189.32097)"
       id="text1311"
       style="font-size:115.292px;line-height:1.3;font-family:'Arial Rounded MT Bold';-inkscape-font-specification:'Arial Rounded MT Bold, Normal';fill:#ffffff;stroke:#ffffff;stroke-width:1.24121;stroke-linecap:round;stroke-linejoin:round;stroke-dasharray:none" /><g
       aria-label="P"
       transform="matrix(1.210961,0,0,1.166443,-105.90914,-350.51784)"
       id="text390-2"
       style="font-size:126.342px;font-family:'Arial Rounded MT Bold';-inkscape-font-specification:'Arial Rounded MT Bold, Normal';stroke:#000000;stroke-width:8;stroke-linecap:round;stroke-linejoin:round;stroke-dasharray:none;stroke-opacity:1"><g
         id="path1636"
         style="stroke:#000000;stroke-width:8;stroke-dasharray:none;stroke-opacity:1"><g
           id="path1643"
           transform="translate(77.901036,16.281015)" /></g></g><g
       aria-label="S"
       id="text386-6"
       style="font-size:145.029px;font-family:'Arial Rounded MT Bold';-inkscape-font-specification:'Arial Rounded MT Bold, Normal';fill:#ffffff;stroke:#ff0000;stroke-width:20;stroke-linecap:round;stroke-linejoin:round"
       transform="matrix(1,0,0,1.0617181,5.8208336,-115.52729)"><g
         id="path1948"
         style="fill:#ffffff" /></g><g
       id="g2795"><rect
         style="fill:#ffffff;fill-opacity:1;stroke:#2a2aff;stroke-width:21.0192;stroke-linecap:round;stroke-linejoin:round;stroke-dasharray:none;stroke-opacity:1"
         id="rect2388"
         width="298.79935"
         height="248.00209"
         x="547.57288"
         y="1758.4817"
         ry="43.618813" /><g
         aria-label="SPO.ES"
         id="text3981-5"
         style="font-size:81.634px;line-height:1.3;font-family:'Arial Rounded MT Bold';-inkscape-font-specification:'Arial Rounded MT Bold, Normal';stroke:#000000;stroke-width:4.37859;stroke-linecap:round;stroke-linejoin:round"><path
           d="m 935.4124,1830.2186 q 0,5.3015 -2.75036,9.5267 -2.71051,4.2252 -7.97208,6.6168 -5.26156,2.3916 -12.47629,2.3916 -8.64969,0 -14.27,-3.2685 -3.98604,-2.3518 -6.49724,-6.2581 -2.47134,-3.9462 -2.47134,-7.6532 0,-2.1525 1.47483,-3.6672 1.51469,-1.5545 3.8266,-1.5545 1.87343,0 3.14896,1.1958 1.31539,1.1958 2.23218,3.5476 1.11609,2.7902 2.39162,4.6636 1.3154,1.8735 3.66716,3.1091 2.35176,1.1959 6.17835,1.1959 5.26157,0 8.53012,-2.4315 3.30841,-2.4714 3.30841,-6.1385 0,-2.9098 -1.79372,-4.7035 -1.75386,-1.8336 -4.58394,-2.7903 -2.79022,-0.9566 -7.49375,-2.0328 -6.29793,-1.4749 -10.56299,-3.428 -4.2252,-1.9931 -6.7364,-5.3812 -2.47134,-3.428 -2.47134,-8.4902 0,-4.8231 2.63078,-8.57 2.63078,-3.7469 7.61333,-5.7399 4.98254,-2.0329 11.71894,-2.0329 5.38115,0 9.28747,1.3553 3.94617,1.3154 6.53709,3.5475 2.59093,2.1924 3.78674,4.6238 1.19581,2.4315 1.19581,4.7434 0,2.1126 -1.5147,3.8266 -1.47483,1.6742 -3.70701,1.6742 -2.03288,0 -3.10911,-0.9966 -1.03637,-1.0363 -2.27204,-3.3482 -1.59441,-3.3084 -3.82659,-5.142 -2.23218,-1.8734 -7.17486,-1.8734 -4.58394,0 -7.41403,2.0328 -2.79022,1.993 -2.79022,4.8231 0,1.7539 0.95664,3.0294 0.95665,1.2755 2.63079,2.1923 1.67413,0.9168 3.38813,1.435 1.71399,0.5182 5.66017,1.5147 4.94268,1.156 8.92872,2.5511 4.02589,1.3951 6.81612,3.3881 2.83008,1.993 4.38464,5.0623 1.59441,3.0293 1.59441,7.4538 z"
           style="fill:#2a2aff;stroke:#2a2aff"
           id="path883" /><path
           d="m 968.13775,1824.9969 h -10.84202 v 16.5421 q 0,3.5476 -1.67413,5.3811 -1.67414,1.8336 -4.2252,1.8336 -2.67064,0 -4.30492,-1.7937 -1.63427,-1.8336 -1.63427,-5.3413 v -45.0422 q 0,-3.9063 1.79371,-5.5804 1.79372,-1.6742 5.70003,-1.6742 h 15.1868 q 6.7364,0 10.36369,1.0364 3.58743,0.9965 6.17836,3.3084 2.63078,2.3119 3.98603,5.6602 1.35525,3.3482 1.35525,7.5336 0,8.9287 -5.50073,13.5525 -5.50072,4.5839 -16.3826,4.5839 z m -2.86995,-26.7861 h -7.97207 v 17.8574 h 7.97207 q 4.18534,0 6.97557,-0.8769 2.83008,-0.8769 4.30491,-2.87 1.47484,-1.993 1.47484,-5.2217 0,-3.8664 -2.27204,-6.2979 -2.55107,-2.5909 -10.48328,-2.5909 z"
           style="fill:#2a2aff;stroke:#2a2aff"
           id="path885" /><path
           d="m 1025.6164,1788.3254 q 9.0881,0 15.5854,3.707 6.5371,3.6672 9.8853,10.4833 3.3483,6.7763 3.3483,15.9441 0,6.7763 -1.8336,12.3169 -1.8335,5.5406 -5.5007,9.6063 -3.6671,4.0658 -9.0084,6.2183 -5.3413,2.1524 -12.2372,2.1524 -6.8559,0 -12.2769,-2.1923 -5.4211,-2.2322 -9.0483,-6.2581 -3.6273,-4.0259 -5.50078,-9.686 -1.83357,-5.6602 -1.83357,-12.2372 0,-6.7364 1.91329,-12.3567 1.95316,-5.6203 5.62036,-9.5665 3.6671,-3.9461 8.9287,-6.0189 5.2615,-2.1126 11.9581,-2.1126 z m 16.821,30.0547 q 0,-6.4175 -2.0727,-11.121 -2.0727,-4.7035 -5.9392,-7.0952 -3.8266,-2.4314 -8.8091,-2.4314 -3.5476,0 -6.577,1.3552 -2.9895,1.3154 -5.1818,3.8665 -2.1525,2.551 -3.428,6.5371 -1.2357,3.9461 -1.2357,8.8888 0,4.9826 1.2357,9.0085 1.2755,4.0259 3.5476,6.6965 2.3119,2.6308 5.2615,3.9462 2.9895,1.3154 6.5371,1.3154 4.5441,0 8.3308,-2.2721 3.8266,-2.272 6.0588,-7.0154 2.272,-4.7434 2.272,-11.6791 z"
           style="fill:#2a2aff;stroke:#2a2aff"
           id="path887" /><path
           d="m 1066.8718,1848.7537 q -2.4713,0 -4.265,-1.5944 -1.7937,-1.5944 -1.7937,-4.4644 0,-2.4314 1.714,-4.1853 1.714,-1.7539 4.2252,-1.7539 2.5112,0 4.265,1.7539 1.7937,1.714 1.7937,4.1853 0,2.8301 -1.7937,4.4644 -1.7538,1.5944 -4.1455,1.5944 z"
           style="fill:#2a2aff;stroke:#2a2aff"
           id="path889" /><path
           d="m 1124.4701,1798.4499 h -26.6666 v 14.3498 h 24.554 q 2.7105,0 4.0258,1.2356 1.3553,1.1959 1.3553,3.1889 0,1.993 -1.3154,3.2685 -1.3154,1.2357 -4.0657,1.2357 h -24.554 v 16.6218 h 27.5833 q 2.7903,0 4.1854,1.3154 1.435,1.2755 1.435,3.4279 0,2.0728 -1.435,3.3882 -1.3951,1.2755 -4.1854,1.2755 h -32.1673 q -3.8664,0 -5.5804,-1.714 -1.6741,-1.714 -1.6741,-5.5406 v -43.9261 q 0,-2.5511 0.7573,-4.1455 0.7573,-1.6342 2.3518,-2.3517 1.6342,-0.7574 4.1454,-0.7574 h 31.2506 q 2.83,0 4.1853,1.2756 1.3951,1.2356 1.3951,3.2685 0,2.0727 -1.3951,3.3483 -1.3553,1.2356 -4.1853,1.2356 z"
           style="fill:#2a2aff;stroke:#2a2aff"
           id="path891" /><path
           d="m 1184.8186,1830.2186 q 0,5.3015 -2.7503,9.5267 -2.7105,4.2252 -7.9721,6.6168 -5.2616,2.3916 -12.4763,2.3916 -8.6497,0 -14.27,-3.2685 -3.986,-2.3518 -6.4973,-6.2581 -2.4713,-3.9462 -2.4713,-7.6532 0,-2.1525 1.4748,-3.6672 1.5147,-1.5545 3.8266,-1.5545 1.8735,0 3.149,1.1958 1.3154,1.1958 2.2322,3.5476 1.1161,2.7902 2.3916,4.6636 1.3154,1.8735 3.6672,3.1091 2.3517,1.1959 6.1783,1.1959 5.2616,0 8.5301,-2.4315 3.3084,-2.4714 3.3084,-6.1385 0,-2.9098 -1.7937,-4.7035 -1.7538,-1.8336 -4.5839,-2.7903 -2.7902,-0.9566 -7.4938,-2.0328 -6.2979,-1.4749 -10.563,-3.428 -4.2252,-1.9931 -6.7364,-5.3812 -2.4713,-3.428 -2.4713,-8.4902 0,-4.8231 2.6308,-8.57 2.6308,-3.7469 7.6133,-5.7399 4.9826,-2.0329 11.719,-2.0329 5.3811,0 9.2874,1.3553 3.9462,1.3154 6.5371,3.5475 2.5909,2.1924 3.7867,4.6238 1.1959,2.4315 1.1959,4.7434 0,2.1126 -1.5147,3.8266 -1.4749,1.6742 -3.707,1.6742 -2.0329,0 -3.1092,-0.9966 -1.0363,-1.0363 -2.272,-3.3482 -1.5944,-3.3084 -3.8266,-5.142 -2.2322,-1.8734 -7.1749,-1.8734 -4.5839,0 -7.414,2.0328 -2.7902,1.993 -2.7902,4.8231 0,1.7539 0.9566,3.0294 0.9567,1.2755 2.6308,2.1923 1.6742,0.9168 3.3882,1.435 1.714,0.5182 5.6601,1.5147 4.9427,1.156 8.9287,2.5511 4.0259,1.3951 6.8162,3.3881 2.8301,1.993 4.3846,5.0623 1.5944,3.0293 1.5944,7.4538 z"
           style="fill:#2a2aff;stroke:#2a2aff"
           id="path893" /></g><g
         aria-label="Planejamento 
Orçamentário"
         id="text3981-7-9"
         style="font-size:59.7447px;line-height:1;font-family:'Arial Rounded MT Bold';-inkscape-font-specification:'Arial Rounded MT Bold, Normal';stroke:#000000;stroke-width:1.31623;stroke-linecap:round;stroke-linejoin:round"><path
           d="m 906.97065,1899.2345 h -7.93485 v 12.1065 q 0,2.5963 -1.22523,3.9382 -1.22523,1.342 -3.09225,1.342 -1.95454,0 -3.1506,-1.3128 -1.19606,-1.3419 -1.19606,-3.9091 v -32.9646 q 0,-2.8589 1.31275,-4.0841 1.31275,-1.2252 4.17162,-1.2252 h 11.11462 q 4.9301,0 7.58477,0.7585 2.6255,0.7293 4.5217,2.4212 1.92536,1.692 2.91722,4.1425 0.99186,2.4505 0.99186,5.5136 0,6.5345 -4.02577,9.9185 -4.02577,3.3548 -11.98978,3.3548 z m -2.1004,-19.6037 h -5.83445 v 13.0691 h 5.83445 q 3.06308,0 5.10514,-0.6418 2.07122,-0.6417 3.1506,-2.1004 1.07937,-1.4586 1.07937,-3.8215 0,-2.8297 -1.66282,-4.6092 -1.86702,-1.8962 -7.67229,-1.8962 z"
           style="fill:#2a2aff;stroke:#2a2aff"
           id="path896" /><path
           d="m 929.66664,1911.7786 v -34.5399 q 0,-2.3922 1.05019,-3.6174 1.07938,-1.2252 2.88805,-1.2252 1.80868,0 2.91723,1.2252 1.10854,1.1961 1.10854,3.6174 v 34.5399 q 0,2.4213 -1.13772,3.6465 -1.10854,1.1961 -2.88805,1.1961 -1.75033,0 -2.85887,-1.2545 -1.07937,-1.2544 -1.07937,-3.5881 z"
           style="fill:#2a2aff;stroke:#2a2aff"
           id="path898" /><path
           d="m 965.98605,1912.1286 q -2.88805,2.2463 -5.60107,3.384 -2.68384,1.1086 -6.03865,1.1086 -3.06308,0 -5.39686,-1.1961 -2.3046,-1.2252 -3.55901,-3.2965 -1.2544,-2.0712 -1.2544,-4.4925 0,-3.2673 2.07122,-5.5719 2.07123,-2.3046 5.68859,-3.0922 0.75847,-0.1751 3.76321,-0.7877 3.00474,-0.6126 5.13431,-1.1085 2.15875,-0.5251 4.66756,-1.2544 -0.14586,-3.1506 -1.28358,-4.6093 -1.10854,-1.4877 -4.63838,-1.4877 -3.03391,0 -4.58004,0.846 -1.51696,0.846 -2.6255,2.5379 -1.07937,1.692 -1.54613,2.2463 -0.43758,0.5251 -1.92536,0.5251 -1.34193,0 -2.33378,-0.846 -0.96268,-0.8752 -0.96268,-2.2171 0,-2.1004 1.48778,-4.0841 1.48778,-1.9837 4.63838,-3.2673 3.1506,-1.2836 7.84733,-1.2836 5.251,0 8.25573,1.2545 3.00474,1.2252 4.22998,3.909 1.2544,2.6839 1.2544,7.118 0,2.8006 -0.0292,4.7551 0,1.9546 -0.0292,4.3467 0,2.2462 0.7293,4.6967 0.75848,2.4213 0.75848,3.1214 0,1.2253 -1.16689,2.2463 -1.13771,0.9919 -2.59633,0.9919 -1.22523,0 -2.42129,-1.1378 -1.19606,-1.1669 -2.53798,-3.3548 z m -0.5251,-11.523 q -1.75034,0.6418 -5.10514,1.3711 -3.32563,0.7001 -4.60921,1.0502 -1.28358,0.3209 -2.45047,1.3127 -1.16689,0.9627 -1.16689,2.7131 0,1.8086 1.3711,3.0922 1.37109,1.2544 3.58818,1.2544 2.36295,0 4.34666,-1.021 2.01288,-1.0502 2.9464,-2.6838 1.07937,-1.8087 1.07937,-5.9512 z"
           style="fill:#2a2aff;stroke:#2a2aff"
           id="path900" /><path
           d="m 988.59451,1888.645 v 0.9627 q 2.1004,-2.7714 4.58004,-4.055 2.50881,-1.3127 5.74693,-1.3127 3.15062,0 5.63022,1.3711 2.4797,1.3711 3.7049,3.8799 0.7876,1.4586 1.021,3.1506 0.2334,1.692 0.2334,4.3175 v 14.8195 q 0,2.3921 -1.1086,3.6173 -1.0793,1.2253 -2.8297,1.2253 -1.7795,0 -2.888,-1.2545 -1.1085,-1.2544 -1.1085,-3.5881 v -13.2734 q 0,-3.9382 -1.1086,-6.0095 -1.07937,-2.1004 -4.34665,-2.1004 -2.12958,0 -3.87991,1.2836 -1.75033,1.2544 -2.56715,3.4715 -0.58345,1.7795 -0.58345,6.6513 v 9.9769 q 0,2.4213 -1.13772,3.6465 -1.10854,1.1961 -2.88804,1.1961 -1.72117,0 -2.82971,-1.2545 -1.10854,-1.2544 -1.10854,-3.5881 v -23.0169 q 0,-2.2754 0.99185,-3.384 0.99186,-1.1377 2.71302,-1.1377 1.0502,0 1.89619,0.4959 0.846,0.4959 1.34192,1.4878 0.5251,0.9919 0.5251,2.4213 z"
           style="fill:#2a2aff;stroke:#2a2aff"
           id="path902" /><path
           d="m 1039.6751,1902.3851 h -15.578 q 0.029,2.713 1.0794,4.7843 1.0794,2.0712 2.8297,3.1214 1.7795,1.0502 3.9091,1.0502 1.4294,0 2.5963,-0.3209 1.196,-0.3501 2.3046,-1.0502 1.1085,-0.7293 2.042,-1.5461 0.9336,-0.8169 2.4213,-2.2171 0.6127,-0.5251 1.7504,-0.5251 1.2252,0 1.9837,0.6709 0.7585,0.671 0.7585,1.8962 0,1.0794 -0.846,2.538 -0.846,1.4294 -2.5672,2.7714 -1.692,1.3127 -4.2883,2.1879 -2.5672,0.8752 -5.922,0.8752 -7.6723,0 -11.9314,-4.3759 -4.2591,-4.3758 -4.2591,-11.8731 0,-3.5298 1.0502,-6.5346 1.0502,-3.0339 3.063,-5.1926 2.0129,-2.1587 4.9593,-3.2965 2.9464,-1.1669 6.5346,-1.1669 4.6675,0 7.9932,1.9838 3.3548,1.9545 5.0176,5.0759 1.6628,3.1214 1.6628,6.3596 0,3.0047 -1.7211,3.909 -1.7212,0.8752 -4.8426,0.8752 z m -15.578,-4.5217 h 14.4403 q -0.2918,-4.0841 -2.2171,-6.097 -1.8962,-2.042 -5.0177,-2.042 -2.9755,0 -4.9009,2.0712 -1.8962,2.042 -2.3046,6.0678 z"
           style="fill:#2a2aff;stroke:#2a2aff"
           id="path904" /><path
           d="m 1060.9708,1888.9951 v 27.0134 q 0,2.8881 -0.2042,4.6968 -0.1751,1.8378 -0.5251,2.6546 -1.9837,5.076 -8.4308,5.076 -3.6173,0 -5.4844,-0.9919 -1.867,-0.9918 -1.867,-2.888 0,-1.4003 0.846,-2.3046 0.846,-0.8752 2.2171,-0.8752 0.175,0 0.5834,0.029 0.3793,0.058 1.1378,0.1167 0.7876,0.058 1.0793,0.058 1.6045,0 2.1296,-1.2544 0.5543,-1.2544 0.5543,-4.4925 v -26.8384 q 0,-2.363 1.1085,-3.559 1.1086,-1.1961 2.9172,-1.1961 1.7504,0 2.8297,1.1961 1.1086,1.1668 1.1086,3.559 z m -3.9383,-8.46 q -1.6628,0 -2.8588,-1.021 -1.1669,-1.021 -1.1669,-2.8881 0,-1.6919 1.196,-2.7713 1.2253,-1.1086 2.8297,-1.1086 1.5462,0 2.7422,0.9919 1.1961,0.9918 1.1961,2.888 0,1.8379 -1.1669,2.8881 -1.1669,1.021 -2.7714,1.021 z"
           style="fill:#2a2aff;stroke:#2a2aff"
           id="path906" /><path
           d="m 1089.2678,1912.1286 q -2.888,2.2463 -5.601,3.384 -2.6839,1.1086 -6.0387,1.1086 -3.0631,0 -5.3968,-1.1961 -2.3046,-1.2252 -3.559,-3.2965 -1.2545,-2.0712 -1.2545,-4.4925 0,-3.2673 2.0713,-5.5719 2.0712,-2.3046 5.6886,-3.0922 0.7584,-0.1751 3.7632,-0.7877 3.0047,-0.6126 5.1343,-1.1085 2.1587,-0.5251 4.6675,-1.2544 -0.1458,-3.1506 -1.2835,-4.6093 -1.1086,-1.4877 -4.6384,-1.4877 -3.0339,0 -4.5801,0.846 -1.5169,0.846 -2.6255,2.5379 -1.0793,1.692 -1.5461,2.2463 -0.4376,0.5251 -1.9254,0.5251 -1.3419,0 -2.3337,-0.846 -0.9627,-0.8752 -0.9627,-2.2171 0,-2.1004 1.4878,-4.0841 1.4878,-1.9837 4.6384,-3.2673 3.1506,-1.2836 7.8473,-1.2836 5.251,0 8.2557,1.2545 3.0048,1.2252 4.23,3.909 1.2544,2.6839 1.2544,7.118 0,2.8006 -0.029,4.7551 0,1.9546 -0.029,4.3467 0,2.2462 0.7294,4.6967 0.7584,2.4213 0.7584,3.1214 0,1.2253 -1.1669,2.2463 -1.1377,0.9919 -2.5963,0.9919 -1.2252,0 -2.4213,-1.1378 -1.196,-1.1669 -2.538,-3.3548 z m -0.5251,-11.523 q -1.7503,0.6418 -5.1051,1.3711 -3.3256,0.7001 -4.6092,1.0502 -1.2836,0.3209 -2.4505,1.3127 -1.1669,0.9627 -1.1669,2.7131 0,1.8086 1.3711,3.0922 1.3711,1.2544 3.5882,1.2544 2.363,0 4.3467,-1.021 2.0129,-1.0502 2.9464,-2.6838 1.0793,-1.8087 1.0793,-5.9512 z"
           style="fill:#2a2aff;stroke:#2a2aff"
           id="path908" /><path
           d="m 1131.13,1901.014 v 10.5895 q 0,2.5088 -1.1377,3.7632 -1.1378,1.2545 -3.0048,1.2545 -1.8087,0 -2.9464,-1.2545 -1.1085,-1.2544 -1.1085,-3.7632 v -12.6899 q 0,-3.0047 -0.2042,-4.6675 -0.2042,-1.6629 -1.1086,-2.7131 -0.9043,-1.0793 -2.8588,-1.0793 -3.9091,0 -5.1635,2.6838 -1.2253,2.6839 -1.2253,7.7015 v 10.7645 q 0,2.4797 -1.1377,3.7632 -1.1085,1.2545 -2.9464,1.2545 -1.8086,0 -2.9755,-1.2545 -1.1378,-1.2835 -1.1378,-3.7632 V 1888.82 q 0,-2.2462 1.0211,-3.4131 1.0502,-1.1669 2.7422,-1.1669 1.6336,0 2.713,1.1085 1.1085,1.0794 1.1085,3.0048 v 0.7585 q 2.0713,-2.4797 4.4342,-3.6466 2.363,-1.1669 5.251,-1.1669 3.0047,0 5.1635,1.1961 2.1587,1.1961 3.559,3.6174 2.0129,-2.4505 4.3175,-3.6174 2.3046,-1.1961 5.1051,-1.1961 3.2673,0 5.6303,1.2836 2.3629,1.2836 3.5298,3.6757 1.021,2.1588 1.021,6.7971 v 15.5488 q 0,2.5088 -1.1377,3.7632 -1.1377,1.2545 -3.0047,1.2545 -1.8087,0 -2.9756,-1.2545 -1.1377,-1.2835 -1.1377,-3.7632 v -13.39 q 0,-2.5672 -0.2334,-4.1133 -0.2042,-1.5461 -1.1669,-2.5963 -0.9627,-1.0502 -2.9172,-1.0502 -1.5753,0 -3.0047,0.9335 -1.4003,0.9335 -2.188,2.5088 -0.8751,2.0129 -0.8751,7.118 z"
           style="fill:#2a2aff;stroke:#2a2aff"
           id="path910" /><path
           d="m 1179.7309,1902.3851 h -15.578 q 0.029,2.713 1.0794,4.7843 1.0794,2.0712 2.8297,3.1214 1.7795,1.0502 3.9091,1.0502 1.4294,0 2.5963,-0.3209 1.1961,-0.3501 2.3046,-1.0502 1.1085,-0.7293 2.0421,-1.5461 0.9335,-0.8169 2.4213,-2.2171 0.6126,-0.5251 1.7503,-0.5251 1.2252,0 1.9837,0.6709 0.7585,0.671 0.7585,1.8962 0,1.0794 -0.846,2.538 -0.846,1.4294 -2.5672,2.7714 -1.692,1.3127 -4.2883,2.1879 -2.5671,0.8752 -5.922,0.8752 -7.6722,0 -11.9314,-4.3759 -4.2591,-4.3758 -4.2591,-11.8731 0,-3.5298 1.0502,-6.5346 1.0502,-3.0339 3.063,-5.1926 2.0129,-2.1587 4.9593,-3.2965 2.9464,-1.1669 6.5346,-1.1669 4.6676,0 7.9932,1.9838 3.3548,1.9545 5.0176,5.0759 1.6628,3.1214 1.6628,6.3596 0,3.0047 -1.7211,3.909 -1.7212,0.8752 -4.8426,0.8752 z m -15.578,-4.5217 h 14.4403 q -0.2918,-4.0841 -2.2171,-6.097 -1.8962,-2.042 -5.0176,-2.042 -2.9756,0 -4.901,2.0712 -1.8962,2.042 -2.3046,6.0678 z"
           style="fill:#2a2aff;stroke:#2a2aff"
           id="path912" /><path
           d="m 1200.239,1888.645 v 0.9627 q 2.1004,-2.7714 4.58,-4.055 2.5088,-1.3127 5.7469,-1.3127 3.1506,0 5.6303,1.3711 2.4796,1.3711 3.7048,3.8799 0.7877,1.4586 1.0211,3.1506 0.2333,1.692 0.2333,4.3175 v 14.8195 q 0,2.3921 -1.1085,3.6173 -1.0794,1.2253 -2.8297,1.2253 -1.7795,0 -2.8881,-1.2545 -1.1085,-1.2544 -1.1085,-3.5881 v -13.2734 q 0,-3.9382 -1.1086,-6.0095 -1.0793,-2.1004 -4.3466,-2.1004 -2.1296,0 -3.8799,1.2836 -1.7504,1.2544 -2.5672,3.4715 -0.5834,1.7795 -0.5834,6.6513 v 9.9769 q 0,2.4213 -1.1377,3.6465 -1.1086,1.1961 -2.8881,1.1961 -1.7211,0 -2.8297,-1.2545 -1.1085,-1.2544 -1.1085,-3.5881 v -23.0169 q 0,-2.2754 0.9918,-3.384 0.9919,-1.1377 2.713,-1.1377 1.0502,0 1.8962,0.4959 0.846,0.4959 1.342,1.4878 0.5251,0.9919 0.5251,2.4213 z"
           style="fill:#2a2aff;stroke:#2a2aff"
           id="path914" /><path
           d="m 1229.5279,1884.9401 h 0.8751 v -4.7842 q 0,-1.9254 0.088,-3.0048 0.1167,-1.1085 0.5835,-1.8962 0.4667,-0.8168 1.3419,-1.3127 0.8752,-0.5251 1.9545,-0.5251 1.517,0 2.7422,1.1377 0.8169,0.7585 1.0211,1.867 0.2333,1.0794 0.2333,3.0923 v 5.426 h 2.9173 q 1.6919,0 2.5671,0.8168 0.9044,0.7877 0.9044,2.0421 0,1.6045 -1.2836,2.2463 -1.2544,0.6417 -3.6174,0.6417 h -1.4878 v 14.6445 q 0,1.867 0.1167,2.8881 0.1459,0.9918 0.7002,1.6336 0.5834,0.6126 1.867,0.6126 0.7001,0 1.8962,-0.2334 1.196,-0.2625 1.867,-0.2625 0.9627,0 1.7212,0.7876 0.7876,0.7585 0.7876,1.8962 0,1.9254 -2.1004,2.9464 -2.1004,1.0211 -6.0386,1.0211 -3.7341,0 -5.6595,-1.2545 -1.9253,-1.2544 -2.5379,-3.4714 -0.5835,-2.2171 -0.5835,-5.922 v -15.2863 h -1.0502 q -1.7211,0 -2.6255,-0.8168 -0.9043,-0.8168 -0.9043,-2.0712 0,-1.2544 0.9335,-2.0421 0.9627,-0.8168 2.7714,-0.8168 z"
           style="fill:#2a2aff;stroke:#2a2aff"
           id="path916" /><path
           d="m 1280.0542,1900.4306 q 0,3.559 -1.1086,6.5637 -1.1085,3.0048 -3.2089,5.1635 -2.1004,2.1587 -5.0177,3.3256 -2.9172,1.1378 -6.5637,1.1378 -3.6174,0 -6.5054,-1.1669 -2.8881,-1.1669 -5.0176,-3.3257 -2.1004,-2.1879 -3.209,-5.1343 -1.0793,-2.9755 -1.0793,-6.5637 0,-3.6174 1.1085,-6.6221 1.1085,-3.0048 3.1798,-5.1343 2.0712,-2.1296 5.0176,-3.2673 2.9464,-1.1669 6.5054,-1.1669 3.6173,0 6.5637,1.1669 2.9464,1.1669 5.0468,3.3256 2.1004,2.1588 3.1798,5.1343 1.1086,2.9756 1.1086,6.5638 z m -7.9932,0 q 0,-4.8718 -2.1588,-7.5848 -2.1296,-2.713 -5.7469,-2.713 -2.3338,0 -4.1133,1.2252 -1.7795,1.1961 -2.7422,3.559 -0.9627,2.363 -0.9627,5.5136 0,3.1214 0.9335,5.4552 0.9627,2.3338 2.7131,3.5882 1.7795,1.2252 4.1716,1.2252 3.6173,0 5.7469,-2.713 2.1588,-2.7422 2.1588,-7.5556 z"
           style="fill:#2a2aff;stroke:#2a2aff"
           id="path918" /><path
           d="m 909.18774,1932.1408 q 6.65126,0 11.40633,2.713 4.78425,2.6838 7.23471,7.6723 2.45047,4.9593 2.45047,11.6689 0,4.9592 -1.34192,9.0142 -1.34192,4.0549 -4.02577,7.0305 -2.68384,2.9756 -6.59292,4.5509 -3.90908,1.5753 -8.95587,1.5753 -5.01762,0 -8.98504,-1.6045 -3.96742,-1.6337 -6.6221,-4.5801 -2.65467,-2.9464 -4.02576,-7.0888 -1.34192,-4.1425 -1.34192,-8.9559 0,-4.9301 1.40026,-9.0434 1.42944,-4.1132 4.11328,-7.0013 2.68385,-2.888 6.53458,-4.405 3.85073,-1.5461 8.75167,-1.5461 z m 12.31067,21.9958 q 0,-4.6967 -1.51695,-8.139 -1.51696,-3.4423 -4.34666,-5.1927 -2.80054,-1.7795 -6.44706,-1.7795 -2.59633,0 -4.81342,0.9919 -2.18792,0.9627 -3.79239,2.8297 -1.5753,1.867 -2.50881,4.7842 -0.90434,2.8881 -0.90434,6.5054 0,3.6465 0.90434,6.5929 0.93351,2.9464 2.59633,4.901 1.69199,1.9253 3.85073,2.888 2.18792,0.9627 4.78425,0.9627 3.32563,0 6.09699,-1.6628 2.80053,-1.6628 4.43418,-5.1343 1.66281,-3.4715 1.66281,-8.5475 z"
           style="fill:#2a2aff;stroke:#2a2aff"
           id="path920" /><path
           d="m 945.04039,1964.872 v 6.6513 q 0,2.4213 -1.13771,3.6465 -1.13772,1.1961 -2.88805,1.1961 -1.72116,0 -2.82971,-1.2253 -1.10854,-1.2252 -1.10854,-3.6173 v -22.1709 q 0,-5.3677 3.8799,-5.3677 1.98371,0 2.85888,1.2544 0.87517,1.2544 0.96268,3.7049 1.42944,-2.4505 2.91722,-3.7049 1.51696,-1.2544 4.02577,-1.2544 2.50881,0 4.87176,1.2544 2.36295,1.2544 2.36295,3.3256 0,1.4586 -1.02103,2.4213 -0.99185,0.9335 -2.15874,0.9335 -0.43759,0 -2.12957,-0.5251 -1.66282,-0.5542 -2.9464,-0.5542 -1.75033,0 -2.85887,0.9335 -1.10855,0.9043 -1.72117,2.713 -0.61261,1.8087 -0.84599,4.3175 -0.23338,2.4796 -0.23338,6.0678 z"
           style="fill:#2a2aff;stroke:#2a2aff"
           id="path922" /><path
           d="m 978.29672,1976.3659 -0.11669,0.5834 q 3.09226,0.2625 4.58004,1.5461 1.51696,1.2836 1.51696,3.3548 0,1.7212 -1.13772,3.0048 -1.10854,1.3127 -3.29646,2.0129 -2.18792,0.7293 -5.30934,0.7293 -5.36769,0 -5.36769,-2.0421 0,-0.5543 0.40841,-0.9627 0.40841,-0.4084 0.96268,-0.4084 0.11669,0 1.28358,0.1167 1.16689,0.1167 2.12957,0.1167 5.251,0 5.251,-2.5088 0,-0.9044 -0.81682,-1.5462 -0.78765,-0.6126 -1.98371,-0.6126 -0.46676,0 -1.34192,0.1167 -0.87517,0.1459 -1.28358,0.1459 -0.72931,0 -1.16689,-0.5543 -0.40841,-0.5251 -0.40841,-1.1377 0,-1.4003 4.14245,-2.0129 -7.05967,-0.3792 -10.82289,-4.6384 -3.76322,-4.2883 -3.76322,-11.2021 0,-4.9009 1.8962,-8.6642 1.89619,-3.7632 5.48438,-5.8052 3.58818,-2.0713 8.57663,-2.0713 3.09225,0 5.65941,0.9044 2.59632,0.9043 4.37583,2.3338 1.80868,1.4294 2.74219,3.063 0.96268,1.6045 0.96268,3.0048 0,1.4294 -1.07937,2.4213 -1.0502,0.9918 -2.56716,0.9918 -1.54612,0 -2.6255,-1.4877 -1.80867,-2.6255 -3.32563,-3.8508 -1.51695,-1.2544 -4.25914,-1.2544 -3.52984,0 -5.68858,2.7714 -2.15875,2.7422 -2.15875,7.5264 0,2.2463 0.55427,4.1425 0.55428,1.867 1.60448,3.2089 1.0502,1.3128 2.53798,2.0129 1.48778,0.6709 3.26729,0.6709 2.50881,0 3.93825,-0.9626 1.45861,-0.9627 2.74218,-2.9173 1.31275,-1.9545 2.01289,-2.713 0.70013,-0.7585 2.07123,-0.7585 1.42943,0 2.39212,1.0794 0.99185,1.0794 0.99185,2.3921 0,1.9546 -1.5753,4.2008 -1.54612,2.2463 -4.63838,3.8799 -3.09225,1.6045 -7.3514,1.7796 z"
           style="fill:#2a2aff;stroke:#2a2aff"
           id="path924" /><path
           d="m 1018.9336,1971.8733 q -2.888,2.2463 -5.601,3.384 -2.6839,1.1086 -6.0387,1.1086 -3.0631,0 -5.3969,-1.1961 -2.30456,-1.2252 -3.55897,-3.2965 -1.2544,-2.0712 -1.2544,-4.4925 0,-3.2673 2.07122,-5.5719 2.07125,-2.3046 5.68855,-3.0922 0.7585,-0.1751 3.7633,-0.7877 3.0047,-0.6126 5.1343,-1.1085 2.1587,-0.5251 4.6675,-1.2544 -0.1458,-3.1506 -1.2836,-4.6092 -1.1085,-1.4878 -4.6383,-1.4878 -3.034,0 -4.5801,0.846 -1.5169,0.846 -2.6255,2.5379 -1.0794,1.692 -1.5461,2.2463 -0.4376,0.5251 -1.9254,0.5251 -1.3419,0 -2.33375,-0.846 -0.96268,-0.8752 -0.96268,-2.2171 0,-2.1004 1.48773,-4.0841 1.4878,-1.9837 4.6384,-3.2673 3.1506,-1.2836 7.8474,-1.2836 5.251,0 8.2557,1.2545 3.0047,1.2252 4.23,3.909 1.2544,2.6839 1.2544,7.1181 0,2.8005 -0.029,4.755 0,1.9546 -0.029,4.3467 0,2.2462 0.7293,4.6967 0.7585,2.4213 0.7585,3.1214 0,1.2253 -1.1669,2.2463 -1.1377,0.9919 -2.5963,0.9919 -1.2252,0 -2.4213,-1.1378 -1.1961,-1.1669 -2.538,-3.3548 z m -0.5251,-11.523 q -1.7503,0.6418 -5.1051,1.3711 -3.3257,0.7001 -4.6092,1.0502 -1.2836,0.3209 -2.4505,1.3127 -1.1669,0.9627 -1.1669,2.7131 0,1.8086 1.3711,3.0922 1.3711,1.2544 3.5882,1.2544 2.3629,0 4.3467,-1.021 2.0128,-1.0502 2.9463,-2.6838 1.0794,-1.8087 1.0794,-5.9512 z"
           style="fill:#2a2aff;stroke:#2a2aff"
           id="path926" /><path
           d="m 1060.7957,1960.7587 v 10.5895 q 0,2.5088 -1.1377,3.7632 -1.1377,1.2545 -3.0047,1.2545 -1.8087,0 -2.9464,-1.2545 -1.1085,-1.2544 -1.1085,-3.7632 v -12.6899 q 0,-3.0047 -0.2043,-4.6675 -0.2042,-1.6629 -1.1085,-2.7131 -0.9043,-1.0793 -2.8589,-1.0793 -3.909,0 -5.1635,2.6838 -1.2252,2.6839 -1.2252,7.7015 v 10.7645 q 0,2.4797 -1.1377,3.7632 -1.1085,1.2545 -2.9464,1.2545 -1.8087,0 -2.9756,-1.2545 -1.1377,-1.2835 -1.1377,-3.7632 v -22.7835 q 0,-2.2462 1.021,-3.4131 1.0502,-1.1669 2.7422,-1.1669 1.6337,0 2.7131,1.1085 1.1085,1.0794 1.1085,3.0048 v 0.7585 q 2.0712,-2.4797 4.4342,-3.6466 2.3629,-1.1669 5.251,-1.1669 3.0047,0 5.1635,1.1961 2.1587,1.1961 3.559,3.6174 2.0128,-2.4505 4.3175,-3.6174 2.3046,-1.1961 5.1051,-1.1961 3.2673,0 5.6302,1.2836 2.363,1.2836 3.5299,3.6757 1.021,2.1588 1.021,6.7971 v 15.5488 q 0,2.5088 -1.1377,3.7632 -1.1377,1.2545 -3.0048,1.2545 -1.8086,0 -2.9755,-1.2545 -1.1377,-1.2835 -1.1377,-3.7632 v -13.39 q 0,-2.5672 -0.2334,-4.1133 -0.2042,-1.5461 -1.1669,-2.5963 -0.9627,-1.0502 -2.9172,-1.0502 -1.5753,0 -3.0048,0.9335 -1.4002,0.9335 -2.1879,2.5088 -0.8752,2.0129 -0.8752,7.118 z"
           style="fill:#2a2aff;stroke:#2a2aff"
           id="path928" /><path
           d="m 1109.3967,1962.1298 h -15.578 q 0.029,2.713 1.0794,4.7843 1.0793,2.0712 2.8297,3.1214 1.7795,1.0502 3.9091,1.0502 1.4294,0 2.5963,-0.3209 1.196,-0.3501 2.3046,-1.0502 1.1085,-0.7293 2.042,-1.5461 0.9336,-0.8169 2.4213,-2.2171 0.6127,-0.5251 1.7504,-0.5251 1.2252,0 1.9837,0.6709 0.7585,0.671 0.7585,1.8962 0,1.0794 -0.846,2.538 -0.846,1.4294 -2.5672,2.7714 -1.692,1.3127 -4.2883,2.1879 -2.5672,0.8752 -5.922,0.8752 -7.6723,0 -11.9314,-4.3759 -4.2591,-4.3758 -4.2591,-11.8731 0,-3.5298 1.0502,-6.5345 1.0502,-3.034 3.063,-5.1927 2.0129,-2.1587 4.9593,-3.2965 2.9464,-1.1669 6.5346,-1.1669 4.6675,0 7.9932,1.9838 3.3548,1.9545 5.0176,5.0759 1.6628,3.1215 1.6628,6.3596 0,3.0047 -1.7211,3.909 -1.7212,0.8752 -4.8426,0.8752 z m -15.578,-4.5217 h 14.4402 q -0.2917,-4.0841 -2.217,-6.097 -1.8962,-2.042 -5.0177,-2.042 -2.9755,0 -4.9009,2.0712 -1.8962,2.0421 -2.3046,6.0678 z"
           style="fill:#2a2aff;stroke:#2a2aff"
           id="path930" /><path
           d="m 1129.9047,1948.3897 v 0.9627 q 2.1004,-2.7714 4.5801,-4.055 2.5088,-1.3127 5.7469,-1.3127 3.1506,0 5.6302,1.3711 2.4797,1.3711 3.7049,3.8799 0.7877,1.4586 1.021,3.1506 0.2334,1.692 0.2334,4.3175 v 14.8195 q 0,2.3921 -1.1085,3.6173 -1.0794,1.2253 -2.8297,1.2253 -1.7795,0 -2.8881,-1.2545 -1.1085,-1.2544 -1.1085,-3.5881 v -13.2734 q 0,-3.9382 -1.1086,-6.0095 -1.0793,-2.1004 -4.3466,-2.1004 -2.1296,0 -3.8799,1.2836 -1.7504,1.2544 -2.5672,3.4715 -0.5834,1.7795 -0.5834,6.6513 v 9.9769 q 0,2.4213 -1.1377,3.6465 -1.1086,1.1961 -2.8881,1.1961 -1.7212,0 -2.8297,-1.2545 -1.1085,-1.2544 -1.1085,-3.5881 v -23.0169 q 0,-2.2754 0.9918,-3.384 0.9919,-1.1377 2.713,-1.1377 1.0502,0 1.8962,0.4959 0.846,0.4959 1.3419,1.4878 0.5251,0.9919 0.5251,2.4213 z"
           style="fill:#2a2aff;stroke:#2a2aff"
           id="path932" /><path
           d="m 1159.1937,1944.6848 h 0.8751 v -4.7842 q 0,-1.9254 0.088,-3.0048 0.1167,-1.1085 0.5835,-1.8962 0.4667,-0.8168 1.3419,-1.3127 0.8752,-0.5251 1.9545,-0.5251 1.517,0 2.7422,1.1377 0.8169,0.7585 1.0211,1.867 0.2333,1.0794 0.2333,3.0923 v 5.426 h 2.9173 q 1.6919,0 2.5671,0.8168 0.9044,0.7877 0.9044,2.0421 0,1.6045 -1.2836,2.2463 -1.2544,0.6418 -3.6174,0.6418 h -1.4878 v 14.6444 q 0,1.867 0.1167,2.8881 0.1459,0.9918 0.7002,1.6336 0.5834,0.6126 1.867,0.6126 0.7001,0 1.8962,-0.2334 1.196,-0.2625 1.867,-0.2625 0.9627,0 1.7212,0.7876 0.7876,0.7585 0.7876,1.8962 0,1.9254 -2.1004,2.9464 -2.1004,1.0211 -6.0386,1.0211 -3.7341,0 -5.6594,-1.2545 -1.9254,-1.2544 -2.538,-3.4714 -0.5835,-2.2171 -0.5835,-5.922 v -15.2862 h -1.0502 q -1.7211,0 -2.6255,-0.8169 -0.9043,-0.8168 -0.9043,-2.0712 0,-1.2544 0.9335,-2.0421 0.9627,-0.8168 2.7714,-0.8168 z"
           style="fill:#2a2aff;stroke:#2a2aff"
           id="path934" /><path
           d="m 1200.0347,1971.8733 q -2.888,2.2463 -5.601,3.384 -2.6839,1.1086 -6.0387,1.1086 -3.0631,0 -5.3968,-1.1961 -2.3046,-1.2252 -3.559,-3.2965 -1.2544,-2.0712 -1.2544,-4.4925 0,-3.2673 2.0712,-5.5719 2.0712,-2.3046 5.6886,-3.0922 0.7584,-0.1751 3.7632,-0.7877 3.0047,-0.6126 5.1343,-1.1085 2.1587,-0.5251 4.6675,-1.2544 -0.1458,-3.1506 -1.2835,-4.6092 -1.1086,-1.4878 -4.6384,-1.4878 -3.0339,0 -4.5801,0.846 -1.5169,0.846 -2.6255,2.5379 -1.0793,1.692 -1.5461,2.2463 -0.4376,0.5251 -1.9253,0.5251 -1.342,0 -2.3338,-0.846 -0.9627,-0.8752 -0.9627,-2.2171 0,-2.1004 1.4878,-4.0841 1.4878,-1.9837 4.6384,-3.2673 3.1506,-1.2836 7.8473,-1.2836 5.251,0 8.2557,1.2545 3.0048,1.2252 4.23,3.909 1.2544,2.6839 1.2544,7.1181 0,2.8005 -0.029,4.755 0,1.9546 -0.029,4.3467 0,2.2462 0.7293,4.6967 0.7584,2.4213 0.7584,3.1214 0,1.2253 -1.1668,2.2463 -1.1378,0.9919 -2.5964,0.9919 -1.2252,0 -2.4213,-1.1378 -1.196,-1.1669 -2.538,-3.3548 z m -0.5251,-11.523 q -1.7503,0.6418 -5.1051,1.3711 -3.3256,0.7001 -4.6092,1.0502 -1.2836,0.3209 -2.4505,1.3127 -1.1669,0.9627 -1.1669,2.7131 0,1.8086 1.3711,3.0922 1.3711,1.2544 3.5882,1.2544 2.363,0 4.3467,-1.021 2.0129,-1.0502 2.9464,-2.6838 1.0793,-1.8087 1.0793,-5.9512 z m -4.7842,-27.8011 h 3.9383 q 1.4877,0 1.4877,0.4376 0,0.2333 -1.6336,1.8962 -1.6337,1.6628 -3.2965,3.1797 -1.6628,1.517 -2.3046,1.8379 -1.6628,0.846 -3.559,0.846 -1.2544,0 -1.2544,-0.7293 0,-0.496 0.7585,-1.7212 l 1.3127,-2.4505 q 1.1378,-2.1295 1.9837,-2.713 0.846,-0.5834 2.5672,-0.5834 z"
           style="fill:#2a2aff;stroke:#2a2aff"
           id="path936" /><path
           d="m 1223.3142,1964.872 v 6.6513 q 0,2.4213 -1.1377,3.6465 -1.1378,1.1961 -2.8881,1.1961 -1.7211,0 -2.8297,-1.2253 -1.1085,-1.2252 -1.1085,-3.6173 v -22.1709 q 0,-5.3677 3.8799,-5.3677 1.9837,0 2.8588,1.2544 0.8752,1.2544 0.9627,3.7049 1.4295,-2.4505 2.9173,-3.7049 1.5169,-1.2544 4.0257,-1.2544 2.5088,0 4.8718,1.2544 2.3629,1.2544 2.3629,3.3256 0,1.4586 -1.021,2.4213 -0.9919,0.9335 -2.1587,0.9335 -0.4376,0 -2.1296,-0.5251 -1.6628,-0.5542 -2.9464,-0.5542 -1.7503,0 -2.8589,0.9335 -1.1085,0.9043 -1.7211,2.713 -0.6127,1.8087 -0.846,4.3175 -0.2334,2.4796 -0.2334,6.0678 z"
           style="fill:#2a2aff;stroke:#2a2aff"
           id="path938" /><path
           d="m 1249.54,1948.5064 v 23.0169 q 0,2.3921 -1.1377,3.6173 -1.1377,1.2253 -2.8881,1.2253 -1.7503,0 -2.8588,-1.2545 -1.0794,-1.2544 -1.0794,-3.5881 v -22.7835 q 0,-2.363 1.0794,-3.559 1.1085,-1.1961 2.8588,-1.1961 1.7504,0 2.8881,1.1961 1.1377,1.196 1.1377,3.3256 z m -3.9382,-8.2266 q -1.6629,0 -2.8589,-1.021 -1.1669,-1.021 -1.1669,-2.8881 0,-1.6919 1.1961,-2.7713 1.2252,-1.1086 2.8297,-1.1086 1.5461,0 2.7421,0.9919 1.1961,0.9918 1.1961,2.888 0,1.8379 -1.1669,2.8881 -1.1669,1.021 -2.7713,1.021 z"
           style="fill:#2a2aff;stroke:#2a2aff"
           id="path940" /><path
           d="m 1287.5806,1960.1753 q 0,3.559 -1.1086,6.5637 -1.1085,3.0048 -3.2089,5.1635 -2.1004,2.1587 -5.0176,3.3256 -2.9173,1.1378 -6.5638,1.1378 -3.6173,0 -6.5054,-1.1669 -2.888,-1.1669 -5.0176,-3.3257 -2.1004,-2.1879 -3.2089,-5.1343 -1.0794,-2.9755 -1.0794,-6.5637 0,-3.6174 1.1085,-6.6221 1.1086,-3.0048 3.1798,-5.1343 2.0712,-2.1296 5.0176,-3.2673 2.9464,-1.1669 6.5054,-1.1669 3.6174,0 6.5638,1.1669 2.9464,1.1669 5.0468,3.3256 2.1004,2.1588 3.1797,5.1343 1.1086,2.9756 1.1086,6.5638 z m -7.9932,0 q 0,-4.8718 -2.1588,-7.5848 -2.1295,-2.713 -5.7469,-2.713 -2.3338,0 -4.1133,1.2252 -1.7795,1.1961 -2.7422,3.559 -0.9626,2.363 -0.9626,5.5136 0,3.1214 0.9335,5.4552 0.9627,2.3338 2.713,3.5882 1.7795,1.2252 4.1716,1.2252 3.6174,0 5.7469,-2.713 2.1588,-2.7422 2.1588,-7.5556 z"
           style="fill:#2a2aff;stroke:#2a2aff"
           id="path942" /></g><g
         id="g2449"
         transform="matrix(1,0,0,1.0750455,-12.891151,-131.30019)"><g
           aria-label="O"
           transform="matrix(0.78801855,0,0,0.93304315,138.72832,230.68064)"
           id="text1311-5"
           style="font-size:115.292px;line-height:1.3;font-family:'Arial Rounded MT Bold';-inkscape-font-specification:'Arial Rounded MT Bold, Normal';fill:#2a2aff;fill-opacity:1;stroke:none;stroke-width:1.24121;stroke-linecap:round;stroke-linejoin:round;stroke-dasharray:none;stroke-opacity:1"><path
             id="path1492-1"
             style="fill:#2a2aff;fill-opacity:1;stroke:none;stroke-width:1.24121;stroke-dasharray:none;stroke-opacity:1"
             d="m 808.56897,1697.2229 c -7.38774,0 -14.13675,0.9399 -20.25033,2.8157 4.52079,4.0572 8.12403,8.7506 10.68208,13.8922 2.59159,5.2085 4.09651,10.7737 4.64765,16.566 1.61663,-0.3506 3.29837,-0.5311 5.04909,-0.5311 4.69122,0 8.83852,1.1448 12.44139,3.4341 3.64038,2.2518 6.43673,5.5924 8.38828,10.0208 1.95156,4.4285 2.92712,9.6638 2.92712,15.7062 0,6.5302 -1.06998,12.0281 -3.20919,16.4941 -2.10168,4.4661 -4.95345,7.7687 -8.5563,9.9078 -3.56535,2.1392 -7.48785,3.2093 -11.76626,3.2093 -3.34014,0 -6.41746,-0.6197 -9.2322,-1.8582 -2.77722,-1.2385 -5.25435,-3.096 -7.43108,-5.573 -2.01431,-2.3678 -3.60671,-5.3088 -4.78907,-8.8079 -1.33001,1.1394 -2.73706,2.2298 -4.23253,3.2607 -0.0646,0.051 -0.1305,0.097 -0.24025,0.1721 0,-5e-4 0.003,4e-4 0.004,0 0.0527,-0.036 0.12321,-0.078 0.1665,-0.1098 -0.0274,0.019 -0.0456,0.043 -0.073,0.062 l -0.0517,0.033 -0.86292,0.5889 -0.59911,0.1894 c -7.621,4.8568 -16.62173,8.1409 -26.74777,10.1172 2.51767,6.6409 5.9755,12.4054 10.3772,17.2909 4.97245,5.5187 11.17445,9.8087 18.60582,12.8687 7.43136,3.0053 15.84619,4.5076 25.24468,4.5076 9.45313,0 17.84124,-1.4754 25.16332,-4.4261 7.3221,-2.9507 13.49661,-7.2122 18.52371,-12.7858 5.02711,-5.5735 8.79728,-12.1582 11.31084,-19.7535 2.51355,-7.5952 3.77028,-16.0378 3.77028,-25.327 0,-12.5678 -2.29446,-23.496 -6.88443,-32.7852 -4.58995,-9.3439 -11.36577,-16.5295 -20.32712,-21.5565 -8.9067,-5.0819 -19.59002,-7.6232 -32.04851,-7.6232 z m -25.89549,78.9213 c -0.0967,0.054 -0.2,0.093 -0.35429,0.167 0.11564,-0.054 0.23252,-0.093 0.29879,-0.131 0.0271,-0.014 0.03,-0.022 0.0555,-0.036 z" /></g><g
           id="path1912"
           style="font-size:148.904px;font-family:'Arial Rounded MT Bold';-inkscape-font-specification:'Arial Rounded MT Bold, Normal';fill:#2a2aff;fill-opacity:1;stroke:none;stroke-width:11.5937;stroke-linecap:round;stroke-linejoin:round;stroke-opacity:1"
           transform="translate(1.0583333,-0.52916667)"><path
             id="path1919"
             style="color:#000000;-inkscape-font-specification:'Arial Rounded MT Bold, Normal';fill:#2a2aff;fill-opacity:1;stroke:none;stroke-linecap:butt;stroke-linejoin:miter;stroke-opacity:1"
             d="m 690.14331,1813.8183 c -3.96331,0 -7.66039,0.5826 -10.80348,2.1606 0.83585,0.6434 1.64512,1.3199 2.42518,2.0319 3.86378,3.4785 7.05901,7.4712 9.20512,12.1042 1.97018,4.2533 3.1502,8.8946 3.1502,13.6322 0,5.1926 -2.05321,10.4671 -5.19555,14.2441 h -0.002 c -1.67575,2.0154 -3.87597,3.6716 -6.2854,4.8437 0.37629,0.2675 0.81509,0.4715 1.18184,0.7493 4.58501,3.4366 8.33341,8.0254 10.87892,13.3289 2.79779,5.6776 3.9548,12.1222 3.9548,18.9332 0,8.4911 -2.20073,16.7239 -6.49005,23.7324 -3.0646,5.0609 -7.18321,9.3044 -12.03492,12.6638 2.23261,1.0317 4.70536,1.5761 7.17992,1.5761 4.49098,0 8.96353,-1.9219 11.9879,-5.2343 3.29102,-3.6044 4.57026,-8.4969 4.57026,-13.7226 v -24.3774 h 13.979 c 14.04661,0 25.46004,-2.9271 33.59329,-9.7048 0.007,-0.01 0.0131,-0.011 0.0196,-0.016 8.0959,-6.8052 12.09952,-17.1105 12.09952,-29.1585 0,-5.715 -0.93122,-11.0655 -2.8944,-15.9158 -1.96054,-4.8437 -4.93998,-9.089 -8.80256,-12.4881 -3.82515,-3.4084 -8.42746,-5.8499 -13.54129,-7.2735 -5.31926,-1.5167 -11.99587,-2.1094 -20.47472,-2.1094 z m 13.72267,27.8071 h 8.74417 c 8.92967,0 13.87416,1.9439 14.93398,2.9626 1.67495,1.8216 2.53473,3.9305 2.53473,7.4533 0,3.0434 -0.64925,4.8557 -1.55236,6.0761 -0.98063,1.3252 -2.38074,2.3634 -4.90823,3.1466 -0.007,0 -0.0145,0.01 -0.0217,0.01 -2.6021,0.8178 -6.30176,1.3322 -10.98641,1.3322 h -8.74417 z" /></g><path
           id="path2306"
           style="color:#000000;font-size:148.297px;font-family:'Arial Rounded MT Bold';-inkscape-font-specification:'Arial Rounded MT Bold, Normal';fill:#f053cd;fill-opacity:1;stroke:none;stroke-width:10.2253;stroke-linecap:butt;stroke-linejoin:miter"
           d="m 644.42499,1799.1471 c -5.29215,0 -9.55239,4.4925 -9.55239,10.0733 v 4.6193 c -5.01234,0.6231 -9.65671,1.7823 -13.91233,3.5177 h -0.008 c -6.75717,2.7089 -12.27702,6.8 -16.08429,12.2225 -3.77889,5.3821 -5.70714,11.7351 -5.70714,18.5058 0,6.9628 1.76433,13.2944 5.45548,18.4144 a 5.1131612,5.1131612 0 0 0 0.0388,0.055 c 3.57246,4.82 8.38942,8.6315 14.16399,11.3554 a 5.1131612,5.1131612 0 0 0 0.0527,0.023 c 5.58853,2.5593 12.28508,4.7148 20.15071,6.5567 a 5.1131612,5.1131612 0 0 0 0.0253,0.01 c 5.58949,1.279 9.99401,2.4815 13.09584,3.545 a 5.1131612,5.1131612 0 0 0 0.0212,0.01 c 2.7922,0.9438 4.78835,2.211 6.2699,3.7599 a 5.1131612,5.1131612 0 0 0 0.0801,0.08 c 1.19488,1.1949 1.75958,2.456 1.75958,4.9294 0,2.9001 -0.92263,4.7856 -3.94911,7.0492 -2.90435,2.1606 -6.85913,3.4081 -12.44369,3.4081 -4.08734,0 -7.02984,-0.6744 -8.88059,-1.6097 -2.21793,-1.172 -3.73133,-2.5034 -4.79713,-4.0117 -1.26501,-1.8635 -2.56148,-4.3517 -3.80441,-7.4589 l 0.0155,0.043 c -1.29798,-3.3296 -2.97808,-6.1651 -5.34955,-8.3338 -2.45411,-2.2886 -5.84349,-3.5388 -9.18962,-3.5388 -3.9458,0 -7.87157,1.5553 -10.6133,4.3692 -2.63057,2.7016 -4.12895,6.4538 -4.12895,10.2283 0,5.6256 1.8927,11.2276 5.2679,16.6171 a 5.1131612,5.1131612 0 0 0 0.0331,0.051 c 3.45427,5.3732 8.01597,9.7686 13.50564,13.0075 a 5.1131612,5.1131612 0 0 0 0.0274,0.016 c 5.45265,3.171 11.78528,5.1472 18.90479,6.0502 v 4.4825 c 0,5.5808 4.26024,10.0738 9.55239,10.0738 5.29217,0 9.55291,-4.493 9.55291,-10.0738 v -4.4959 c 5.53381,-0.7204 10.63536,-2.1047 15.26367,-4.2085 7.09708,-3.226 12.80034,-7.8929 16.65789,-13.8984 3.85852,-5.9333 5.8167,-12.783 5.8167,-20.082 0,-5.9545 -1.07147,-11.3116 -3.4649,-15.8791 -2.24359,-4.418 -5.492,-8.1654 -9.55497,-11.0293 -3.85899,-2.7537 -8.4182,-4.9953 -13.6462,-6.8084 h -0.006 c -5.03233,-1.7611 -10.60894,-3.3514 -16.74006,-4.7852 l 0.0879,0.02 c -4.74548,-1.1983 -8.15039,-2.112 -10.05469,-2.6877 -1.71761,-0.5193 -3.43929,-1.245 -5.17798,-2.1972 -1.51116,-0.8275 -2.4921,-1.6964 -3.14451,-2.5663 -0.48367,-0.6449 -0.71675,-1.241 -0.71675,-2.4355 0,-1.7472 0.48021,-2.8534 2.92799,-4.6018 a 5.1131612,5.1131612 0 0 0 0.0114,-0.01 c 2.36513,-1.6989 5.69102,-2.7327 10.48669,-2.7327 5.33999,0 8.46568,1.1329 9.74566,2.2071 a 5.1131612,5.1131612 0 0 0 0.0434,0.035 c 1.99925,1.6422 3.90363,4.1104 5.58984,7.6093 a 5.1131612,5.1131612 0 0 0 0.0977,0.1912 c 1.62687,3.0439 3.1406,5.4067 5.0214,7.2875 a 5.1131612,5.1131612 0 0 0 0.14056,0.1364 c 2.48093,2.297 5.82356,3.1703 9.12089,3.1703 3.98146,0 7.93857,-1.7864 10.57041,-4.7738 2.52176,-2.8561 4.02921,-6.5537 4.02921,-10.3317 0,-3.6813 -0.96558,-7.3527 -2.69699,-10.8732 -1.82105,-3.7028 -4.60252,-7.0222 -8.14472,-10.0237 -3.72492,-3.206 -8.28893,-5.6435 -13.55473,-7.4022 -2.71141,-0.9382 -5.61442,-1.6232 -8.70851,-2.0732 v -4.7346 c 0,-5.5808 -4.26074,-10.0733 -9.55291,-10.0733 z" /></g></g></g></svg>
