<?xml version="1.0" encoding="UTF-8" standalone="no"?>
<!-- Created with Inkscape (http://www.inkscape.org/) -->

<svg
   width="32.000011mm"
   height="32mm"
   viewBox="0 0 32.000011 32"
   version="1.1"
   id="svg1886"
   inkscape:version="1.2.1 (9c6d41e410, 2022-07-14)"
   sodipodi:docname="Ícone SPO_32x32_azul-04.1.svg"
   inkscape:export-filename="Ícone SPO_32x32_azul-04.1.png"
   inkscape:export-xdpi="25.399992"
   inkscape:export-ydpi="25.399992"
   xmlns:inkscape="http://www.inkscape.org/namespaces/inkscape"
   xmlns:sodipodi="http://sodipodi.sourceforge.net/DTD/sodipodi-0.dtd"
   xmlns="http://www.w3.org/2000/svg"
   xmlns:svg="http://www.w3.org/2000/svg">
  <sodipodi:namedview
     id="namedview1888"
     pagecolor="#ffffff"
     bordercolor="#000000"
     borderopacity="0.25"
     inkscape:showpageshadow="2"
     inkscape:pageopacity="0.0"
     inkscape:pagecheckerboard="true"
     inkscape:deskcolor="#d1d1d1"
     inkscape:document-units="mm"
     showgrid="false"
     inkscape:zoom="0.76167929"
     inkscape:cx="22.975549"
     inkscape:cy="227.12971"
     inkscape:window-width="1920"
     inkscape:window-height="1009"
     inkscape:window-x="1912"
     inkscape:window-y="-8"
     inkscape:window-maximized="1"
     inkscape:current-layer="g282" />
  <defs
     id="defs1883" />
  <g
     inkscape:label="Camada 1"
     inkscape:groupmode="layer"
     id="layer1"
     transform="translate(-33.742531,-89.032495)">
    <g
       id="g282"
       style="fill:#ffffff"
       transform="matrix(0.26458333,0,0,0.26458333,11.081747,-25.267979)">
      <path
         id="path270"
         style="fill:#335885;stroke-width:0px;fill-opacity:1"
         class="cls-1"
         d="m 184.00054,433.64355 c -0.53637,-0.005 -1.07428,0.18907 -1.49819,0.58126 -0.84782,0.78437 -0.93398,2.08779 -0.20727,2.98175 13.59974,16.67381 17.86729,38.84401 11.4077,59.31283 -2.74533,8.72621 -7.22096,16.58182 -13.31143,23.34709 -1.55787,1.73382 -3.21204,3.36065 -4.93729,4.90125 v -84.63124 l -19.17692,18.8142 v 77.60548 c -0.10842,0.0425 -0.21354,0.0922 -0.32217,0.13405 -1.89804,0.73058 -3.82687,1.35793 -5.77425,1.90259 V 462.81446 L 131.0038,484.0393 v 56.82785 c -1.74913,-0.0604 -3.49226,-0.19857 -5.23018,-0.40328 v -52.5608 -0.006 l -20.04767,21.23047 v 25.57185 c -6.01762,-2.86334 -11.514314,-6.63371 -16.392304,-11.29167 -0.830519,-0.79591 -2.139561,-0.80804 -2.987382,-0.0236 -0.847822,0.78438 -0.933974,2.08779 -0.20727,2.98175 6.765265,8.28788 15.508846,14.93263 25.278976,19.20058 2.19741,0.96894 4.49842,1.83361 6.83426,2.56608 1.67833,0.53061 3.37425,0.99814 5.03529,1.37879 5.11,1.19387 10.28318,1.7877 15.43931,1.7877 l -0.0112,0.006 c 8.47244,0 16.90394,-1.6027 24.92076,-4.78635 7.2728,-2.87798 13.93517,-6.95024 19.81224,-12.09484 9.3145,-8.17253 16.21234,-18.75622 19.94968,-30.60265 7.84955,-24.88671 0.98577,-51.54926 -17.90852,-69.57266 -0.41814,-0.39796 -0.95281,-0.60059 -1.48919,-0.60491 z" />
      <g
         id="g280"
         style="fill:#ffffff">
        <path
           class="cls-1"
           d="m 286.22,552.54 c -6.5,20.61 -18.33,38.07 -33.47,51.35 -9.85,8.63 -21.11,15.49 -33.25,20.3 -20.94,8.31 -44.46,10.47 -67.73,5.03 -2.83,-0.65 -5.64,-1.42 -8.45,-2.31 -3.94,-1.24 -7.77,-2.67 -11.47,-4.31 -16.94,-7.4 -31.3,-18.59 -42.42,-32.22 11.74,11.21 26.05,20.07 42.42,25.52 0.62,0.21 1.24,0.42 1.87,0.62 10.93,3.45 21.99,5.15 32.88,5.29 3.04,0.05 6.06,-0.05 9.07,-0.24 11.48,-0.79 22.68,-3.31 33.25,-7.37 3.6,-1.39 7.13,-2.96 10.58,-4.71 12.47,-6.32 23.77,-14.92 33.25,-25.45 10.55,-11.73 18.83,-25.84 23.88,-41.87 12,-38.02 2.99,-77.63 -20.46,-106.37 30.45,29.04 43.57,73.91 30.06,116.75 z"
           id="path276"
           style="display:none;fill:#ffffff;stroke-width:0px" />
      </g>
    </g>
  </g>
</svg>
